M48
; DRILL file {KiCad 7.0.10} date Fri Mar 22 14:29:51 2024
; FORMAT={-:-/ absolute / inch / decimal}
; #@! TF.CreationDate,2024-03-22T14:29:51+05:30
; #@! TF.GenerationSoftware,Kicad,Pcbnew,7.0.10
; #@! TF.FileFunction,Plated,1,2,PTH
FMAT,2
INCH
; #@! TA.AperFunction,Plated,PTH,ViaDrill
T1C0.0276
; #@! TA.AperFunction,Plated,PTH,ComponentDrill
T2C0.0315
; #@! TA.AperFunction,Plated,PTH,ViaDrill
T3C0.0354
; #@! TA.AperFunction,Plated,PTH,ComponentDrill
T4C0.0394
; #@! TA.AperFunction,Plated,PTH,ComponentDrill
T5C0.0472
; #@! TA.AperFunction,Plated,PTH,ComponentDrill
T6C0.0520
; #@! TA.AperFunction,Plated,PTH,ComponentDrill
T7C0.0630
%
G90
G05
T1
X4.201Y-4.924
X4.405Y-4.7445
X6.0611Y-4.191
X6.063Y-3.408
T2
X2.59Y-3.2027
X2.69Y-3.3027
X2.79Y-3.2027
X3.7396Y-4.1559
X3.779Y-3.2
X4.2396Y-4.1559
X4.279Y-3.2
X4.6286Y-3.0834
X4.6286Y-3.5834
X4.6339Y-4.1358
X4.6339Y-4.6358
X4.792Y-4.6145
X4.792Y-5.1145
X4.7987Y-3.5877
X4.7987Y-4.0877
T3
X2.2224Y-4.7087
X2.2283Y-4.1535
X2.2343Y-3.7618
X2.2835Y-3.2579
X2.2835Y-3.4646
X2.3228Y-3.9665
X2.3327Y-4.4193
X2.3745Y-3.5916
X2.4213Y-4.6457
X2.454Y-4.91
X2.484Y-4.175
X2.518Y-3.893
X2.5768Y-5.2776
X2.788Y-3.893
X2.789Y-4.296
X2.797Y-4.796
X2.8051Y-4.0945
X2.8248Y-3.5256
X2.8563Y-5.2618
X3.2205Y-3.7047
X3.2441Y-3.9134
X3.315Y-4.002
X3.315Y-4.212
X3.318Y-4.517
X3.3563Y-3.2185
X3.3563Y-4.9114
X3.3661Y-3.3661
X3.3681Y-5.2421
X3.379Y-4.715
X3.386Y-2.969
X3.4843Y-3.3465
X3.5039Y-5.0984
X3.526Y-4.006
X3.5335Y-2.9232
X3.5335Y-4.1831
X3.5827Y-3.1693
X3.6319Y-5.2362
X3.6471Y-3.6744
X3.6614Y-3.0512
X3.7697Y-2.9232
X3.844Y-4.622
X3.8583Y-5.2657
X3.882Y-3.676
X3.9075Y-4.3602
X3.9508Y-3.0492
X4.0059Y-5.1181
X4.0256Y-3.1988
X4.0748Y-4.1535
X4.077Y-3.406
X4.0945Y-2.9232
X4.2028Y-5.2657
X4.209Y-4.543
X4.212Y-3.9752
X4.2126Y-5.0984
X4.235Y-3.601
X4.3937Y-3.0492
X4.4435Y-3.8105
X4.498Y-2.9232
X4.5571Y-5.2756
X4.626Y-3.3169
X4.626Y-4.3701
X4.639Y-3.733
X4.8031Y-3.8189
X4.833Y-3.228
X4.8425Y-3.435
X4.872Y-5.2854
X4.9606Y-3.6713
X4.9705Y-3.9075
X4.9705Y-4.124
X4.9803Y-4.3996
X5.0689Y-3.248
X5.07Y-4.832
X5.1575Y-4.9409
X5.1673Y-5.2854
X5.1969Y-4.6063
X5.235Y-4.444
X5.2362Y-3.5531
X5.2362Y-3.7992
X5.2461Y-3.1988
X5.263Y-4.061
X5.4921Y-5.2854
X5.625Y-3.372
X5.6496Y-3.75
X5.6594Y-3.9862
X5.673Y-4.165
X5.7185Y-4.5571
X5.72Y-4.81
X5.744Y-5.143
X5.7677Y-2.9429
X5.844Y-3.488
X6.02Y-4.671
X6.059Y-5.138
X6.1024Y-2.9429
X6.1417Y-4.8031
X6.2008Y-4.1339
X6.21Y-3.824
X6.2106Y-3.6417
X6.25Y-5.2559
X6.2697Y-3.0807
X6.4173Y-2.9429
X6.5059Y-5.2559
X6.7618Y-3.7106
X6.7618Y-4.0059
X6.8209Y-4.4882
X6.8209Y-4.6457
X6.8209Y-4.8327
X6.8307Y-3.2185
X6.8307Y-4.1831
X6.8406Y-3.5039
X6.8406Y-3.8386
T4
X2.638Y-3.493
X2.638Y-3.593
X2.638Y-3.693
X2.638Y-3.793
X2.638Y-3.893
X2.638Y-3.993
X2.638Y-4.093
X2.638Y-4.193
X2.638Y-4.293
X2.638Y-4.393
X2.638Y-4.493
X2.638Y-4.593
X2.638Y-4.693
X2.638Y-4.793
X2.638Y-4.893
X2.638Y-4.993
X2.977Y-3.151
X2.977Y-3.251
X2.977Y-3.351
X2.977Y-3.451
X2.977Y-3.551
X2.977Y-3.651
X2.977Y-3.751
X2.977Y-3.851
X2.977Y-3.951
X2.977Y-4.051
X2.977Y-4.151
X2.977Y-4.251
X2.977Y-4.351
X2.977Y-4.451
X2.977Y-4.551
X2.977Y-4.651
X2.977Y-4.751
X2.977Y-4.851
X2.977Y-4.951
X3.077Y-3.151
X3.077Y-3.251
X3.077Y-3.351
X3.077Y-3.451
X3.077Y-3.551
X3.077Y-3.651
X3.077Y-3.751
X3.077Y-3.851
X3.077Y-3.951
X3.077Y-4.051
X3.077Y-4.151
X3.077Y-4.251
X3.077Y-4.351
X3.077Y-4.451
X3.077Y-4.551
X3.077Y-4.651
X3.077Y-4.751
X3.077Y-4.851
X3.077Y-4.951
X5.3786Y-3.151
X5.3786Y-3.251
X5.3786Y-3.351
X5.3786Y-3.451
X5.3786Y-3.551
X5.3786Y-3.651
X5.3786Y-3.751
X5.3786Y-3.851
X5.3786Y-3.951
X5.3786Y-4.051
X5.3786Y-4.151
X5.3786Y-4.251
X5.3786Y-4.351
X5.3786Y-4.451
X5.3786Y-4.551
X5.3786Y-4.651
X5.3786Y-4.751
X5.3786Y-4.851
X5.3786Y-4.951
X5.4786Y-3.151
X5.4786Y-3.251
X5.4786Y-3.351
X5.4786Y-3.451
X5.4786Y-3.551
X5.4786Y-3.651
X5.4786Y-3.751
X5.4786Y-3.851
X5.4786Y-3.951
X5.4786Y-4.051
X5.4786Y-4.151
X5.4786Y-4.251
X5.4786Y-4.351
X5.4786Y-4.451
X5.4786Y-4.551
X5.4786Y-4.651
X5.4786Y-4.751
X5.4786Y-4.851
X5.4786Y-4.951
X6.4521Y-3.4075
X6.5363Y-3.7275
X6.5363Y-3.8275
X6.5395Y-4.0075
X6.5395Y-4.1075
X6.6489Y-3.4075
T5
X5.8435Y-3.7112
X5.8435Y-3.8163
X5.8435Y-3.9214
X5.848Y-4.3335
X5.848Y-4.4386
X5.848Y-4.5437
X5.8518Y-3.1169
X5.8518Y-3.222
X5.8518Y-3.3271
X5.8529Y-4.927
X5.8529Y-5.0321
X5.8529Y-5.1372
T6
X6.4679Y-4.3432
X6.4679Y-4.5401
X6.472Y-4.78
X6.472Y-4.9769
T7
X3.7152Y-4.3606
X3.777Y-3.406
X4.3152Y-4.3606
X4.377Y-3.406
M30
